<svg width="23" height="21" viewBox="0 0 23 21" fill="none" xmlns="http://www.w3.org/2000/svg">
<path d="M21.2031 5.85938H17.4062V3.37031C17.4062 1.93594 16.2672 0.796875 14.8328 0.796875H8.16719C6.73281 0.796875 5.59375 1.93594 5.59375 3.37031V5.85938H1.79688C1.33281 5.85938 0.953125 6.23906 0.953125 6.70312V16.3641C0.953125 18.7266 2.85156 20.625 5.21406 20.625H17.7859C20.1484 20.625 22.0469 18.7266 22.0469 16.3641V6.70312C22.0469 6.23906 21.6672 5.85938 21.2031 5.85938ZM7.28125 3.37031C7.28125 2.86406 7.66094 2.48438 8.16719 2.48438H14.8328C15.3391 2.48438 15.7188 2.86406 15.7188 3.37031V5.85938H7.28125V3.37031ZM20.3594 16.3641C20.3594 17.7984 19.2203 18.9375 17.7859 18.9375H5.21406C3.77969 18.9375 2.64062 17.7984 2.64062 16.3641V7.54688H5.59375V9.23438C5.59375 9.69844 5.97344 10.0781 6.4375 10.0781C6.90156 10.0781 7.28125 9.69844 7.28125 9.23438V7.54688H15.7188V9.23438C15.7188 9.69844 16.0984 10.0781 16.5625 10.0781C17.0266 10.0781 17.4062 9.69844 17.4062 9.23438V7.54688H20.3594V16.3641Z" fill="#CFCFCF"/>
</svg>
