<svg width="25" height="21" viewBox="0 0 25 21" fill="none" xmlns="http://www.w3.org/2000/svg">
<path d="M17.4275 0.27375C16.5137 0.274164 15.6097 0.46151 14.771 0.824265C13.9323 1.18702 13.1767 1.71752 12.5506 2.38313L12.5 2.43375L12.4494 2.38313C11.8229 1.71677 11.0667 1.18574 10.2272 0.822748C9.38777 0.459756 8.48287 0.272491 7.56829 0.272491C6.65371 0.272491 5.74881 0.459756 4.90935 0.822748C4.06989 1.18574 3.31364 1.71677 2.6872 2.38313C1.40239 3.75574 0.687531 5.56552 0.687531 7.44563C0.687531 9.32574 1.40239 11.1355 2.6872 12.5081L3.34532 13.2L3.40439 13.2591L11.9516 20.5322C12.1044 20.6629 12.2989 20.7347 12.5 20.7347C12.7011 20.7347 12.8956 20.6629 13.0484 20.5322L21.5872 13.2591L21.6547 13.2L22.3128 12.5081C23.5976 11.1355 24.3125 9.32574 24.3125 7.44563C24.3125 5.56552 23.5976 3.75574 22.3128 2.38313C21.6839 1.71885 20.9266 1.18933 20.0868 0.82672C19.247 0.464111 18.3423 0.275979 17.4275 0.27375ZM21.0894 11.3438L20.465 12.0019L12.5 18.7519L4.53501 12.0019L3.9022 11.3438C2.91834 10.2841 2.37156 8.8916 2.37156 7.44563C2.37156 5.99965 2.91834 4.60715 3.9022 3.5475C4.37173 3.04685 4.93894 2.6478 5.56878 2.375C6.19861 2.1022 6.8777 1.96146 7.56407 1.96146C8.25045 1.96146 8.92953 2.1022 9.55937 2.375C10.1892 2.6478 10.7564 3.04685 11.2259 3.5475L11.8925 4.23938C11.9712 4.32103 12.0656 4.38599 12.17 4.43035C12.2743 4.47472 12.3866 4.49758 12.5 4.49758C12.6134 4.49758 12.7257 4.47472 12.8301 4.43035C12.9344 4.38599 13.0288 4.32103 13.1075 4.23938L13.7656 3.5475C14.2352 3.04685 14.8024 2.6478 15.4322 2.375C16.062 2.1022 16.7411 1.96146 17.4275 1.96146C18.1139 1.96146 18.793 2.1022 19.4228 2.375C20.0526 2.6478 20.6199 3.04685 21.0894 3.5475C22.0769 4.60529 22.6262 5.99849 22.6262 7.44563C22.6262 8.89276 22.0769 10.286 21.0894 11.3438Z" fill="#CFCFCF"/>
</svg>
