<svg width="23" height="25" viewBox="0 0 23 25" fill="none" xmlns="http://www.w3.org/2000/svg">
<path d="M8.30187 22.3678V18.9178C8.30185 18.0402 9.01726 17.3272 9.90364 17.3213H13.1505C14.0411 17.3213 14.7631 18.0361 14.7631 18.9178V22.3785C14.7629 23.1236 15.3635 23.7325 16.1159 23.75H18.2805C20.4383 23.75 22.1875 22.0183 22.1875 19.8821V10.0676C22.176 9.22718 21.7774 8.43802 21.1052 7.92466L13.7024 2.02096C12.4056 0.993012 10.562 0.993012 9.26509 2.02096L1.89478 7.93538C1.22004 8.44665 0.82081 9.23712 0.8125 10.0783V19.8821C0.8125 22.0183 2.56173 23.75 4.71953 23.75H6.88408C7.65515 23.75 8.28022 23.1312 8.28022 22.3678" stroke="#FF5500" stroke-width="1.5" stroke-linecap="round" stroke-linejoin="round"/>
</svg>
