<svg width="20" height="22" viewBox="0 0 20 22" fill="none" xmlns="http://www.w3.org/2000/svg">
<path fill-rule="evenodd" clip-rule="evenodd" d="M7.2235 2.77601C7.55894 1.64942 8.54275 0.5 9.99999 0.5C11.4576 0.5 12.4405 1.64947 12.7784 2.77394C12.7801 2.77603 12.7824 2.77868 12.7853 2.78172C12.7922 2.78895 12.8001 2.79559 12.8075 2.80075C12.8132 2.80467 12.8166 2.80636 12.817 2.80656C13.6653 3.15582 14.6637 3.71371 15.4446 4.73514C16.2318 5.76478 16.7439 7.19413 16.7439 9.18828C16.7439 11.1765 16.9537 12.2668 17.2626 13.0153C17.5334 13.6716 17.8896 14.103 18.3964 14.7168C18.4704 14.8065 18.5476 14.9 18.6283 14.9987L18.6285 14.999C19.5625 16.1431 18.6805 17.75 17.2417 17.75H13.75C13.75 18.7446 13.3549 19.6984 12.6516 20.4016C11.9484 21.1049 10.9946 21.5 9.99999 21.5C9.00543 21.5 8.0516 21.1049 7.34834 20.4016C6.64508 19.6984 6.24999 18.7446 6.24999 17.75H2.76296C1.3268 17.75 0.429922 16.1513 1.3717 14.9987C1.45241 14.9 1.5297 14.8063 1.60378 14.7166C2.1105 14.1029 2.46671 13.6714 2.73779 13.0151C3.04698 12.2666 3.25725 11.1763 3.25843 9.18828M7.74999 17.75C7.74999 18.3467 7.98705 18.919 8.409 19.341C8.83096 19.7629 9.40326 20 9.99999 20C10.5967 20 11.169 19.7629 11.591 19.341C12.0129 18.919 12.25 18.3467 12.25 17.75H7.74999ZM2.76296 16.25C2.60881 16.25 2.53942 16.1791 2.51155 16.1245C2.49549 16.093 2.49068 16.0625 2.49299 16.0369C2.49504 16.0144 2.50339 15.9844 2.53324 15.9479L2.53328 15.9478C2.60572 15.8592 2.6787 15.7712 2.75176 15.6832C3.2545 15.0772 3.7612 14.4666 4.12419 13.5878C4.54142 12.5776 4.75723 11.2622 4.75843 9.18871V9.18828C4.75843 7.46069 5.19574 6.36809 5.74857 5.64523C6.30759 4.91428 7.04004 4.48863 7.7565 4.19357C7.75656 4.19355 7.75661 4.19352 7.75667 4.1935C8.13853 4.03643 8.51954 3.68648 8.65714 3.21761L8.65769 3.21574C8.8711 2.48152 9.42256 2 9.99999 2C10.5774 2 11.1291 2.48116 11.3453 3.2169L11.3458 3.2188C11.4826 3.67986 11.8596 4.03471 12.2457 4.19353C12.9607 4.48786 13.6935 4.91434 14.253 5.64619C14.8063 6.3699 15.2439 7.4629 15.2439 9.18828C15.2439 11.2617 15.4591 12.5773 15.876 13.5876C16.2388 14.4665 16.7456 15.0773 17.2483 15.6833C17.3214 15.7713 17.3943 15.8592 17.4667 15.9478C17.5137 16.0055 17.5175 16.0652 17.487 16.1254C17.4586 16.1814 17.3903 16.25 17.2417 16.25H2.76296ZM7.2235 2.77601C7.2222 2.77755 7.22058 2.77936 7.2186 2.78141C7.21222 2.78803 7.20467 2.79442 7.19714 2.79961C7.19015 2.80443 7.18595 2.8063 7.18596 2.80631L7.1855 2.8065C6.33686 3.15597 5.33806 3.71281 4.55708 4.73399C3.76993 5.76324 3.2585 7.19238 3.25843 9.18785" fill="#CFCFCF"/>
</svg>
