<svg width="17" height="22" viewBox="0 0 17 22" fill="none" xmlns="http://www.w3.org/2000/svg">
<path d="M14.4062 11.5C15.8042 11.5 16.9375 12.6333 16.9375 14.0312V14.875C16.9375 18.2018 13.7996 21.625 8.5 21.625C3.20042 21.625 0.0625 18.2018 0.0625 14.875V14.0312C0.0625 12.6333 1.19578 11.5 2.59375 11.5H14.4062ZM14.4062 13.1875H2.59375C2.12776 13.1875 1.75 13.5653 1.75 14.0312V14.875C1.75 17.301 4.16676 19.9375 8.5 19.9375C12.8332 19.9375 15.25 17.301 15.25 14.875V14.0312C15.25 13.5653 14.8722 13.1875 14.4062 13.1875ZM8.5 0.53125C11.0629 0.53125 13.1406 2.60893 13.1406 5.17188C13.1406 7.73482 11.0629 9.8125 8.5 9.8125C5.93705 9.8125 3.85938 7.73482 3.85938 5.17188C3.85938 2.60893 5.93705 0.53125 8.5 0.53125ZM8.5 2.21875C6.86903 2.21875 5.54688 3.54091 5.54688 5.17188C5.54688 6.80284 6.86903 8.125 8.5 8.125C10.131 8.125 11.4531 6.80284 11.4531 5.17188C11.4531 3.54091 10.131 2.21875 8.5 2.21875Z" fill="#CFCFCF"/>
</svg>
