<svg width="18" height="18" viewBox="0 0 18 18" fill="none" xmlns="http://www.w3.org/2000/svg">
<path d="M17.2891 6.64916C17.2368 6.49488 17.1404 6.35932 17.0118 6.25921C16.8833 6.1591 16.7282 6.09883 16.5658 6.08583L11.815 5.70833L9.75915 1.1575C9.69368 1.01092 9.58718 0.886431 9.45252 0.799045C9.31786 0.711658 9.16078 0.665112 9.00025 0.665024C8.83972 0.664936 8.68259 0.711309 8.54784 0.798548C8.41308 0.885787 8.30645 1.01016 8.24081 1.15666L6.18498 5.70833L1.43415 6.08583C1.27453 6.09847 1.12193 6.15684 0.99461 6.25394C0.867291 6.35104 0.770642 6.48276 0.716225 6.63335C0.661809 6.78394 0.651929 6.94702 0.687769 7.10308C0.723608 7.25914 0.803648 7.40157 0.918315 7.51333L4.42915 10.9358L3.18748 16.3125C3.14978 16.4752 3.16186 16.6456 3.22216 16.8014C3.28247 16.9572 3.3882 17.0912 3.52565 17.1862C3.6631 17.2811 3.82591 17.3326 3.99297 17.3339C4.16002 17.3351 4.3236 17.2862 4.46248 17.1933L8.99998 14.1683L13.5375 17.1933C13.6794 17.2876 13.8468 17.3361 14.0172 17.3324C14.1875 17.3286 14.3526 17.2728 14.4903 17.1724C14.628 17.0721 14.7316 16.9319 14.7873 16.7709C14.8429 16.6099 14.848 16.4356 14.8016 16.2717L13.2775 10.9383L17.0575 7.53666C17.305 7.31333 17.3958 6.965 17.2891 6.64916Z" fill="#E6BB66"/>
</svg>
